<?xml version="1.0" encoding="utf-8"?>
<!-- Generator: Adobe Illustrator 27.3.1, SVG Export Plug-In . SVG Version: 6.00 Build 0)  -->
<svg version="1.1" id="Layer_1" xmlns="http://www.w3.org/2000/svg" xmlns:xlink="http://www.w3.org/1999/xlink" x="0px" y="0px"
	 viewBox="0 0 4819.9 4033.4" style="enable-background:new 0 0 4819.9 4033.4;" xml:space="preserve">
<style type="text/css">
	.st0{opacity:0.53;}
	.st1{fill:#D1395D;}
	.st2{fill:#EAB93F;}
	.st3{fill:#57C6A4;}
	.st4{opacity:0.12;}
	.st5{fill:#5E65EA;}
</style>
<g transform="translate(-1255 -781)" class="st0">
	<g>
		<path class="st1" d="M2315.1,1900.5c1.7,0.6,3.4,1,5.1,1.5c-3.5-1.6-6.9-3.2-10.4-4.7c-0.9-0.4-1.9-0.7-2.8-1.1
			C2309.6,1897.7,2312.3,1899.1,2315.1,1900.5L2315.1,1900.5z"/>
		<path class="st1" d="M3149.7,2392.1c-2.6-9.9-6.8-19.3-12.6-27.7l-22.4-29.6c-16.2-19.8-33.4-38.7-50.6-57.6
			c-15.5-17.1-31-33.9-47.5-50.1c-34.4-33.9-70.6-68.7-88.7-114.4c-3.8-9.6,1.8-21.5,9.3-27.3c7.9-6.1,20.1-7.6,28.9-2
			c19.6,12.6,37.3,27.8,58.4,38.2c1.1,0.5,2.3,1.1,3.4,1.6c0.1,0.1,0.3,0.1,0.4,0.2c2.1,0.8,4.2,1.5,6.4,2.2c1.9,0.6,4,0.9,5.9,1.4
			c0.3,0.1,0.7,0.1,1,0.1h1.5h1.7c0.4,0,0.7-0.1,1.1-0.2c0.1,0,0.2,0,0.3-0.1c0.4-0.1,0.8-0.3,1.2-0.5c0.5-0.2,0.9-0.6,1.3-0.9
			c0.5-0.5,0.9-0.9,1.2-1.1c0.4-0.5,0.8-0.9,1.2-1.4c0.2-0.2,0.3-0.5,0.5-0.7c0.5-0.9,1-1.7,1.5-2.6c0.4-0.8,0.6-1.7,0.6-2.6v-0.1
			c0-2.6-0.3-5.1-0.5-7.7c0-0.4-0.1-0.7-0.1-1.1c-0.1-1-0.3-2-0.5-3c-0.5-2.9-1-5.8-1.5-8.7c-0.4-2.5-0.9-5-1.3-7.5
			c-0.1-0.4-0.2-0.8-0.3-1.2c-30.4-74.4-60.5-131.5-83.8-149.3c-257.5-196.3-29.6-292.2-381.8-402.6c-34.6-10.9-66.5-18.3-95.8-22.7
			c-10.7-1.6-21.3-5.2-31.6-10c-3.7-1.7-7.7-2.7-11.9-2.9c-25.1-1-50.2-2.1-75.2-6.4c-20.1-4.3-40-11.1-59.1-21.8
			c-0.2-0.1-0.3-0.2-0.5-0.3c-10.7-7.2-20.9-15.8-30.6-26c-0.1-0.1-0.2-0.3-0.3-0.4c-8.1-9.9-15.5-20.9-22.2-32.9
			c-0.1-0.1-0.2-0.3-0.2-0.4c-4.5-9.7-8.5-19.9-11.9-30.6c0-0.2-0.1-0.3-0.1-0.5c-2-8.5-3.5-17.1-4.7-25.9c0-0.2,0-0.3,0-0.5
			c-1.6-34,3.1-68.9-5.4-101.6c-4.9-18.6-8.8-29.5-17.4-44.8c-5-8.9-11.5-15.8-17.7-22.2c-9.7-10-21.6-16.4-32.9-20.5
			c-11.8-4.3-24-6.2-36.1-8c-12.5-1.9-25-3.7-37.5-5.5c-25-3.7-50.1-7.3-75.1-11c-19-2.8-38-5.2-56.9-8.3c-1.2-0.2-2.3-0.7-3.1-1.6
			c-2.2-2.2-4.3-4.5-6.4-6.8c-6.9-8.5-13.5-17.4-20.4-25.9c-8.6-10.6-17.6-20.2-26.4-30.3c-4.7-5.9-9.1-12.3-13.1-19.5
			c-0.1-0.2-0.2-0.3-0.3-0.5c-2.9-6.3-5.2-12.7-7.2-19.5c0-0.1-0.1-0.3-0.1-0.5c-0.8-3.4-1.5-6.9-2.1-10.5
			c-1.6-9.7-5.9-18.2-11.3-23.7c-0.5-0.5-0.9-1.1-1.2-1.7c-0.1-0.3-0.3-0.6-0.4-0.9c-4.6-9.9-9.6-20.4-15.7-28.6
			c-15.7-21-33.5-32.6-54.2-34.5c-0.6-0.1-1.1,0-1.7,0.1l-9.6,2c-0.3,0.1-0.6,0.1-0.9,0.3c-5.5,2.1-10.4,6.1-14.5,12
			c-7.4,9-12.4,20.2-15,34.4c-4.9,26.8-5.2,53.8-2,79.8v0.8c-0.6,17-0.8,34.1-0.8,51.2c0,44.2,2,88.5,5.7,132.3
			c2,24,4.6,48,7.7,71.7c0.4,3.3,1.3,6.5,2.5,9.3c0.2,0.4,0.3,0.9,0.4,1.3c3.2,21.7,8.9,42.6,16.5,60.8c3.9,9.3,8.2,18,12.8,26.1
			c21.7,4.3,42.6,13.6,62.7,24c22.9,11.9,45.9,23.6,67.1,38.5c12.5,8.8,24.8,18.2,36,28.7c11.8,11,22,23.3,31.7,36.2
			c34.2,45.4,50.5,101.2,84.2,146.9c18.2,22.5,38.8,42.6,60,62.1c20.1,9.4,39.8,19.7,60.1,28.5c33.6,13.5,68.6,23.6,102.7,35.9
			c34.3,12.3,68.8,26.3,99.1,46.7c34.2,23,62.9,52.4,83.3,88.3c19.7,34.8,32.3,73.5,42.6,112c10.3,38.5,21.1,76.6,36.1,113.5
			c8.1,19,17.1,37.8,27.7,55.5c10.4,17.3,21.9,33.9,34.1,50c19.8,25,41.3,48.7,63.9,71.2c21.6,21.5,44.1,42.5,68.1,61.3
			c21.7,16.1,45,30.2,69.8,40.9c17,6.8,35.1,10.1,53,13.4c8.6,0.3,17.1,0.9,25.6,1.8c24.4,3.8,48.2,10.3,71.1,19.3
			c16.2,7.2,31.8,15.7,46.5,25.5c63.7,70.1,107.7,149.9,154.8,122.3C3200,2621.6,3182.8,2517.1,3149.7,2392.1L3149.7,2392.1z"/>
		<path class="st1" d="M3011.1,2571.3c-2.4-11.9-10.1-22.6-20-29.8c-0.7-0.5-1.5-1-2.2-1.5c-2.6-1.8-5.4-3.2-8.3-4.5
			c-4.6-1.9-9.2-3.7-13.8-5.4c-1.9-0.6-3.8-1.2-5.6-1.7c-0.3-0.1-0.7-0.2-1-0.2c-0.1,0-0.2-0.1-0.3-0.1
			c-15.3-4.4-30.9-7.4-46.6-10.6c-19.6-4-39.2-8.2-58.8-12.2c-21.7-4.4-43.4-7.4-64.3-14.8c-18.2-6.4-34.7-17.2-50.7-27.9
			c-7.8-5.2-15.5-10.6-22.8-16.4c-0.6-0.7-1.2-1.3-1.9-2c-14.3-13.4-30.3-25.3-47.5-34.9c-12-6.7-28.7-4.4-37.5,6.3
			c-0.8,1-1.6,2-2.4,3.1c-4,6-4.7,11.4-5.1,18.6c-1,17.2,7.2,35.2,17.8,48.3c10.5,13,23.3,23.1,35.1,34.7c1.1,1.1,2.2,2.2,3.3,3.4
			c0.8,1,1.5,2,2.3,3c2,3.8,3.9,7.5,5.9,11.3v0.1c1.4,3.7,2.6,7.5,3.8,11.3c5.6,16.8,13.7,34.4,28.5,45
			c15.1,10.8,33.4,14.2,49.7,9.1c3.5-1.1,7-1.9,10.6-2.3c6.3-0.7,12.6-1.8,19-2.6c8-1,21.8-2.8,26.6,5.6c4.6,8.1-0.2,20.2-1.6,28.5
			c-1.9,12.4-0.9,24,4.8,35.5c11.2,22.5,36.1,35,61.2,30.5c12-2.2,23.5-8.3,31.6-17.1c9.2-10,11-23.6,19.1-34.1
			c7-8.9,18.5-13.8,28.6-18.6c11.5-5.6,23.1-11.8,31.7-21.3C3009.2,2597.6,3013.9,2584.7,3011.1,2571.3L3011.1,2571.3z"/>
	</g>
	<g transform="translate(1871)">
		<path class="st2" d="M1420.5,2402.7c7.7-40.4,14.9-76.3,47-135.8c49.2-91.4,133.8-196.1,170.8-241.5
			c86.5-106.4,143-160.7,131-177.4c-10.7-14.9-61.2,20.8-94,15.5c-47.7-7.6-11.2-93.7,60.8-176.4c61.4-70.7,101.8-84.7,167.9-157.9
			c67.1-74.2,60-97.9,107.2-189.4c25.5-49.5,110.6-214.6,204.4-276.8c82.2-54.5,160-22.5,192.7,17.5c15.9,19.5,68.1,98.2-124,449.9
			c-164.2,300.8-260,348.6-325.7,531.5c-54.3,150.9-18.4,199.8-138.1,317.3c-93.4,91.7-241.9,186.3-326.9,210.1
			C1378.9,2621.4,1398.3,2519.4,1420.5,2402.7L1420.5,2402.7z"/>
		<path class="st2" d="M1708.3,1900.1c1.3-5.5,0.2-10.6-2.3-13.9c-2.5-3.2-6.9-4-10.6-1.8c-0.3,0.2-0.6,0.4-0.9,0.6
			c-0.2,0-0.5,0.1-0.7,0.2l-58.8,15.7c-17.8,4.8-36,10.7-53.6,12.2c-8.5,0.7-16.8,0.2-24.6-2.4c-7.6-2.5-14.8-6.4-22.5-8.6
			c-15.6-4.5-33.1-0.1-47.3,18.2c-13.2,17.1-19.9,40.4-18.1,61.5c1.8,20.8,11,37,24.5,45c13.9,8.2,30.2,8.9,46.9,4
			c17.1-5.1,34-15.8,50.3-27.3c20-14.1,39.9-28.9,59.9-43.4c18-13.1,35.6-27,50.1-47.7C1704.1,1909.6,1707,1905.5,1708.3,1900.1
			L1708.3,1900.1z M1522.1,2124.6c-0.1-11.1-0.1-22.3-0.4-33.4c-0.3-9.9-0.2-21.7-6.8-29.2c-7.1-8.1-18.8-5.9-28.2-5.9
			c-10,0-20.3-0.7-30.2,1.7c-8.9,2.2-16.8,7.7-23.4,14.6c-6.6,7-11.3,16.6-10.7,26.9c0.6,9.4,5.1,18.3,12,23.6
			c3.4,2.6,7.2,4.1,11.2,5.4c1,0.3,2.1,0.6,3.2,0.8c1.7,1.7,2.8,3.9,2.8,6.3c0,2.7-0.6,5.4-1.6,8c-2.5,3.6-5.4,6.8-8.6,9.5
			c-3.5,1.7-7.4,2.5-11.1,4c-4.9,2-9.6,5.7-12.4,10.7c-2.6,1.9-4.9,4.5-6.4,8.2c-4.9,11.8,2.6,23.9,11.7,29.4
			c8.9,5.3,19.9,5.4,29.5,1.9c10-3.6,18.4-10.9,26.2-18.6c3.1-3.1,6.1-6.4,8.9-9.8c2-1.2,4-2.3,6-3.5c8.1-4.7,17.5-9.2,23.1-17.7
			C1523.4,2147.8,1522.2,2135.8,1522.1,2124.6z"/>
	</g>
	<g transform="translate(651 1856)">
		<path class="st3" d="M2396.5,918.4c217.5-30.3,224.4,59.9,115.9,118.4c-38.9,21-92.2,37.3-109.8,55c-25.9,26,72.1,8,80.9,31.4
			c10.7,28.9-120.8,104.1-256.3,154.4c-80.5,29.9-106.7,30.4-162.9,55.5c-86.7,39-122.4,81.9-97.7,100.5
			c24.3,18.2,88.6-1.7,131.4,10.4c63,17.8,15.5,86.6-114.4,149.3c-106.3,51.4-205.4,68.4-290.2,118.4c-36.5,21.4-36.5,29.1-70,64
			c-66.4,69.1-140.6,95.1-133,114.4c8.7,22,89.9-0.4,105.9,18.4c25,29.2-134.8,125.9-260.9,160.8c-142.6,39.4-221.1-5.8-275.2-36.9
			c-32-18.3-82.4-49.1-63.4-117.5c9.6-34.4,34.5-69.9,276.6-280c273.2-237.2,341-278.3,338.5-334.1c-1.7-38.3-34.9-44.3,15.4-85.2
			C1732.8,1129.9,2143.4,953.6,2396.5,918.4L2396.5,918.4z"/>
		<path class="st3" d="M2576.3,1188.9c-2.9-2.3-8.3-3.9-10.7-6.2c-1.6-1.6,0.3-3.9,0.8-5.6c1.1-3.2,1.4-6.6-0.3-9.7
			c-3.7-6.2-14.4-9.9-25.9-11.3c-24.8-3-48.8,5.5-47.2,19.3c1.3,11.9,18.2,18.3,36.9,22.5c4.6,5.2,12.3,9.7,23.8,10.6
			c12.3,0.9,24.5-2.9,27-9.5C2582.2,1195.5,2579.8,1191.8,2576.3,1188.9L2576.3,1188.9z"/>
		<path class="st3" d="M2378.9,1383.5c-12.8-3.5-27.3-5.4-41.1-7.7c-14.9-2.5-29.6-5-44.5-7.4c-28.8-4.8-57.9-9-88-11.1
			c-30.4-2-64.1-1.8-89.4,8.3c-21.3,8.5-31.3,25.4-17.3,38c2.2,2,6.4,3.9,11,4.1c1.1,0.2,2.4,0.3,3.7,0.3c16.5-0.2,32.5,0.8,48,2.8
			c2.2,0.4,4.3,0.7,6.6,0.9c8.5,1.3,17,2.9,25.3,4.9c1.3,0.6,2.6,1.2,3.7,1.9c17.1,9,26.9,19.7,38.1,30.8
			c11.5,11.6,27.8,21.7,54.1,23.7c28,2.2,54.7-6,72.8-16.6c17.8-10.5,36.8-23.7,42.9-37.6
			C2410.3,1405.8,2403.1,1390.4,2378.9,1383.5L2378.9,1383.5z M2433.1,1324c-7.5-9.3-25.6-16.6-44.9-17.5
			c-14.9-0.8-28.8,1.1-42.1,4.1c-1.3-0.1-2.4-0.1-3.7-0.2c-24.6-1.2-56.3-4-72.3,8.8c-3,2.5-4.6,5.2-4.5,8c-0.3,0.4-0.3,0.9-0.5,1.3
			l0.3,2.6c0,0.1,0.2,0.2,0.2,0.3s0.3,0.4,0.5,1c0.5,1,1.3,1.9,2.1,2.7c2.2,2,3.7,3,7.2,4.4c1.6,0.7,3.5,1.2,5.6,1.6
			c2.9,1.2,6.1,1.9,9.9,2c13,0.4,25.9,0.6,38.9,1c6.9,1.6,13.8,3.3,20.6,4.8c20.8,4.6,44,7.4,64.8,1.3
			C2433.3,1344.9,2441.1,1333.9,2433.1,1324L2433.1,1324z"/>
	</g>
</g>
<g class="st4">
	<path class="st5" d="M4568.3,2980.7c-104-109.4-888.9-4.7-970.1,27.4c-32.3,12.8-62.1,25.7-91.5,41
		c-86.2,44.8-117.4,83.6-139.4,116.3c-75.6,112.4-10.8,106.9-69.1,154c-107.3,86.7-334.6,111.9-357,170.9
		c-14.7,38.6,67.1,69,155.4,78.2c91.1,9.5,552.7-459.8,616.5-234.2c47,165.9,211.8,100.6,314,175.4c143,104.7,579.2-61.7,549-155.6
		C4542.3,3248.4,4732.6,3153.4,4568.3,2980.7L4568.3,2980.7z"/>
	<path class="st5" d="M3547.5,2947.9c-6.8-20.9-30.3-35.7-55.9-40.3c-30.4-5.4-62.4,0.8-91.8,7.2c-32,7-63.1,16.4-93,27.9
		c-57.8,22.3-109.7,53-159.1,85.5c-12.7,8.3-25.2,16.8-37.6,25.2c-11,7.5-22.5,14.8-32.5,23.1c-9.3,7.7-17.4,16.6-21.6,26.8
		c-4.3,10.4-2.5,21.2,3.8,30.8c6.4,9.8,16.9,17.3,23.7,26.8c5.9,8.2,7.8,18.2,5.9,27.5c-4.2,20.1-25.6,34.5-50.9,35
		c-2.6,0.1-5.2,0-7.9-0.3c-4.7-0.6-8.9-1.7-12.8,1.3c-4.2,3.2-7.7,7.6-10.3,11.8c-5.3,8.6-7.5,18.3-6.9,27.8
		c1.2,19.7,13.6,38.3,33.7,49.6c5.6,3.1,11.6,5.7,17.8,7.8c5.6,4,13,6.4,21.1,6.7c4.2,0.2,8.6-0.1,13-0.5c8.3,0.4,16.7,0.1,24.9-0.9
		c29.2-3.5,55.6-14.9,78.4-29.6c23.4-15.1,43.9-33,62.7-51.6c18.7-18.6,35.7-38.3,51.3-58.6c30.3-39.6,55.3-81.7,78.8-124.1
		c13.6-15.8,28-31,47.4-42.7c8.6-5.2,18.2-9.2,28.4-11.8c6.4-0.4,12.9-0.8,19.3-1.4c13.6-1.4,26.6-4,38.8-9
		C3539.8,2988.3,3554.4,2969,3547.5,2947.9L3547.5,2947.9z"/>
	<path class="st5" d="M3058.8,3354.2c-2.7-4.3-7.8-7.1-13.5-7.8c-0.3-0.2-0.6-0.3-0.9-0.5c-12.8-6.7-28-8.1-42.8-9.5
		c-17-1.5-33.9-3.2-50.9-4.6c-15-1.3-30.2,0.2-42.5,7.7c-11.5,7.1-19.9,16.9-23.5,28.2c-7.2,22.8,3.6,50.9,25.9,66.4
		c10.4,7.2,23.9,12,37.8,10.6c15.3-1.5,28.3-8.8,37.6-18.5c10.4-10.8,16-23.7,25-35.2c3.3-4.2,8.1-8.7,12.9-11.3
		c3.6-2,4.6-2.5,8.3-3.4c0.8-0.2,1.7-0.4,2.5-0.5c0.2,0,0.5-0.1,0.8-0.1c2.2-0.1,4.3-0.1,6.4,0.1c2.1,0.2,4.2-0.3,5.9-1.2
		c1.5-0.1,3-0.5,4.3-1.3C3059.8,3369.1,3063,3361.1,3058.8,3354.2L3058.8,3354.2z"/>
	<path class="st5" d="M2889,3291.6c-0.4-2.2-1.7-4.2-4.2-5.2c-12.3-4.8-25.6-9.4-39.3-5.2c-11.1,3.4-19.7,12.6-16.7,22.3
		c2.9,9.5,15.1,15.5,26.9,15.5c14.2,0,25.5-7.8,35-15.3C2895.8,3299.7,2893.5,3294.1,2889,3291.6L2889,3291.6z"/>
	<path class="st5" d="M2852.3,3358.5c-2.1-0.7-4.2-0.7-6.1-0.2c-1.1-0.1-2.3-0.1-3.4,0.1c-22.6,3.8-41.5,16.7-50.3,33.4
		c-3.7,4.4-6.5,9.2-7.7,14.2c-2.5,10.5,6.4,20.9,20.7,19.4c14.5-1.6,20.7-13.2,26.9-22.3c7-10.1,14-20.2,20.9-30.4
		c0.8-0.8,1.4-1.7,1.8-2.7c0.5-0.8,1.1-1.6,1.6-2.4C2859.1,3364.3,2856.3,3359.8,2852.3,3358.5z"/>
</g>
</svg>
