<?xml version="1.0" encoding="utf-8"?>
<!-- Generator: Adobe Illustrator 27.3.1, SVG Export Plug-In . SVG Version: 6.00 Build 0)  -->
<svg version="1.1" id="Layer_1" xmlns="http://www.w3.org/2000/svg" xmlns:xlink="http://www.w3.org/1999/xlink" x="0px" y="0px"
	 viewBox="0 0 2466.3 2410.5" style="enable-background:new 0 0 2466.3 2410.5;" xml:space="preserve">
<style type="text/css">
	.st0{opacity:0.53;}
	.st1{fill:#D1395D;}
	.st2{fill:#EAB93F;}
	.st3{fill:#57C6A4;}
	.st4{opacity:0.12;}
	.st5{fill:#5E65EA;}
</style>
<g transform="translate(-1255 -781)" class="st0">
	<g>
		<path class="st1" d="M830.8,911.4c1.8,0.1,3.5,0,5.3,0c-3.8-0.5-7.5-1.1-11.3-1.6c-1-0.1-2-0.1-3-0.3
			C824.7,910.3,827.7,910.8,830.8,911.4L830.8,911.4z"/>
		<path class="st1" d="M1770.5,1146.5c-5.3-8.8-12-16.6-19.9-23l-29.9-22c-21.1-14.4-43-27.7-64.8-40.9
			c-19.7-12-39.3-23.7-59.7-34.6c-42.6-22.8-87.2-45.9-117.5-84.6c-6.4-8.1-4.4-21.1,1.2-28.8c5.8-8.1,17.1-13,27.2-10.1
			c22.4,6.5,43.6,16.1,66.8,20.1c1.2,0.2,2.5,0.4,3.7,0.6c0.1,0.1,0.3,0,0.4,0.1c2.2,0.2,4.5,0.2,6.8,0.3c2,0,4.1-0.3,6.1-0.3
			c0.3,0,0.7-0.1,1-0.2l1.4-0.4l1.6-0.5c0.4-0.1,0.6-0.3,1-0.5c0.1,0,0.2-0.1,0.3-0.2c0.4-0.2,0.7-0.5,1-0.8c0.4-0.3,0.7-0.8,1-1.2
			c0.3-0.6,0.6-1.1,0.8-1.4c0.2-0.6,0.5-1.1,0.8-1.7c0.1-0.2,0.1-0.6,0.3-0.8c0.2-1,0.5-1.9,0.7-2.9c0.2-0.9,0.1-1.8-0.2-2.7v-0.1
			c-0.7-2.5-1.7-4.8-2.7-7.2c-0.1-0.4-0.3-0.6-0.4-1c-0.4-0.9-0.9-1.8-1.3-2.7c-1.3-2.6-2.6-5.3-3.9-7.9c-1.1-2.3-2.3-4.5-3.4-6.8
			c-0.2-0.4-0.4-0.7-0.6-1.1c-50.2-62.7-95.3-109-122.7-119.5c-302.5-115.3-111.1-271.9-480.2-278c-36.3-0.7-69,1.3-98.3,5.4
			c-10.7,1.5-21.9,1-33.1-0.6c-4-0.6-8.1-0.4-12.2,0.6c-24.4,6.1-48.7,12.2-73.9,15.2c-20.5,1.6-41.5,0.7-62.9-4.2
			c-0.2,0-0.3-0.1-0.6-0.1c-12.3-3.9-24.5-9.2-36.7-16.3c-0.1-0.1-0.3-0.2-0.4-0.3c-10.6-7.2-20.8-15.7-30.6-25.3
			c-0.1-0.1-0.3-0.2-0.3-0.3c-7.1-8-13.8-16.7-20.1-26c-0.1-0.2-0.2-0.3-0.2-0.5c-4.3-7.6-8.2-15.4-11.8-23.5
			c-0.1-0.2-0.1-0.3-0.1-0.5c-11.2-32.2-16.5-67-34-95.9c-10-16.5-16.8-25.8-29.4-38c-7.3-7.1-15.5-11.9-23.3-16.3
			c-12.1-6.8-25.4-9.6-37.4-10.3c-12.5-0.8-24.8,0.9-36.9,2.6c-12.5,1.7-25,3.5-37.5,5.3c-25,3.5-50.1,7.2-75.1,10.7
			c-19,2.7-37.9,5.8-56.9,8.2c-1.2,0.1-2.4,0-3.4-0.7c-2.7-1.5-5.4-3.1-8.1-4.7c-9-6.2-17.9-12.9-26.9-19.1
			c-11.2-7.7-22.6-14.4-33.9-21.6c-6.2-4.3-12.2-9.2-18.1-15c-0.2-0.2-0.3-0.2-0.4-0.4c-4.6-5.2-8.6-10.7-12.4-16.7
			c0-0.1-0.2-0.3-0.2-0.5c-1.7-3-3.4-6.2-5-9.5c-4.3-8.8-10.8-15.8-17.5-19.5c-0.6-0.3-1.2-0.8-1.6-1.3c-0.2-0.3-0.5-0.5-0.6-0.7
			c-7.2-8.2-15-16.8-23.2-23c-21-15.7-41.4-21.8-61.8-17.7c-0.6,0.1-1.1,0.3-1.6,0.6l-8.6,4.6c-0.3,0.2-0.5,0.3-0.8,0.5
			c-4.7,3.6-8.2,8.8-10.5,15.6c-4.5,10.7-6.2,22.9-4.6,37.2c2.9,27.1,10.2,53.1,20.7,77.1l0.2,0.8c4.2,16.5,8.9,32.9,13.7,49.3
			c12.5,42.4,27,84.3,42.9,125.3c8.7,22.5,18,44.7,27.7,66.6c1.3,3.1,3.1,5.9,5,8.2c0.3,0.3,0.5,0.8,0.8,1.1
			c9.2,19.9,20.6,38.3,33,53.6c6.4,7.8,13,14.9,19.7,21.4c22-2,44.7,1,66.9,5.3c25.3,4.9,50.7,9.6,75.3,17.9
			c14.5,4.9,28.9,10.4,42.7,17.3c14.4,7.2,27.7,16.1,40.7,25.7c45.7,33.9,77.1,82.8,122.4,117c23.8,16.4,49.3,29.9,75.1,42.6
			c21.9,3.3,43.7,7.6,65.7,10.3c36,3.4,72.5,3.2,108.7,5.3c36.4,2.1,73.4,5.7,108.3,16.7c39.3,12.4,75.2,32.4,104.9,61.1
			c28.7,27.8,51.8,61.3,72.6,95.4s41.9,67.5,66.8,98.6c13.1,15.9,27.1,31.4,42.3,45.4c14.9,13.6,30.6,26.3,46.9,38.3
			c26.1,18.4,53.4,35,81.4,50.2c26.8,14.5,54.3,28.3,82.7,39.5c25.4,9.3,51.7,16.2,78.5,19.5c18.2,1.7,36.5-0.3,54.6-2.2
			c8.3-2.1,16.7-4,25.1-5.5c24.5-3.3,49.1-3.8,73.7-1.6c17.6,2.3,34.9,6.1,51.8,11.3c80.9,49.2,145.7,113.3,183.1,73.5
			C1883.7,1352.4,1837.6,1257,1770.5,1146.5L1770.5,1146.5z"/>
	</g>
	<g transform="translate(1871)">
		<path class="st2" d="M174.1,1226.3c9.7-40,18.8-75.4,53.8-133.2c53.8-88.8,143.6-189.1,182.8-232.5
			c91.8-101.9,151-153.2,139.8-170.5c-9.9-15.4-62.2,17.7-94.7,10.7c-47.3-10-6.4-94.1,69.7-173.1c64.9-67.5,106-79.4,175.7-149.2
			c70.8-70.7,64.9-94.7,116.7-183.7c28-48.1,121.4-208.7,218.2-266.1C1121-121.6,1197-85.6,1227.7-44c14.9,20.3,63,101.5-146.7,443
			C901.7,691.1,803.6,733.9,728.7,913.3c-61.9,147.9-28.5,198.6-154,309.9c-97.9,86.8-251,173.8-337.1,193.2
			C121.4,1442.6,146,1341.8,174.1,1226.3L174.1,1226.3z"/>
		<path class="st2" d="M487,739c1.6-5.4,0.7-10.6-1.6-14c-2.3-3.3-6.7-4.3-10.5-2.3c-0.3,0.2-0.6,0.4-0.9,0.6
			c-0.2,0-0.5,0.1-0.7,0.2l-59.5,12.7c-18,3.9-36.5,8.9-54.2,9.5c-8.5,0.3-16.8-0.7-24.4-3.6c-7.5-2.9-14.5-7.1-22-9.7
			c-15.4-5.3-33.1-1.8-48.2,15.8c-14.1,16.4-21.9,39.3-21.2,60.5c0.7,20.9,9.1,37.5,22.2,46.2c13.5,8.9,29.7,10.4,46.6,6.4
			c17.3-4.2,34.8-14.1,51.6-24.7c20.7-13.1,41.3-26.8,62-40.3c18.6-12.2,36.9-25.2,52.5-45.1C482.4,748.3,485.5,744.3,487,739
			L487,739z M289.7,953.8c0.5-11.1,1-22.3,1.3-33.4c0.2-9.9,0.9-21.7-5.3-29.5c-6.7-8.5-18.5-6.8-27.9-7.3
			c-10-0.5-20.2-1.7-30.2,0.2c-9,1.7-17.2,6.8-24.1,13.4c-6.9,6.7-12.1,16-12.1,26.3c0.1,9.4,4.2,18.5,10.8,24.2
			c3.3,2.8,7,4.5,10.9,6c1,0.4,2.1,0.7,3.2,1c1.6,1.8,2.6,4,2.5,6.4c-0.1,2.7-0.9,5.4-2,7.9c-2.7,3.5-5.7,6.5-9.1,9.1
			c-3.6,1.5-7.5,2.1-11.3,3.4c-5,1.7-9.9,5.2-12.9,10.1c-2.7,1.8-5.1,4.2-6.8,7.9c-5.5,11.5,1.4,24,10.2,30
			c8.6,5.7,19.6,6.4,29.4,3.4c10.2-3.1,18.9-10,27.1-17.2c3.3-2.9,6.4-6.1,9.4-9.3c2.1-1.1,4.1-2.1,6.2-3.2
			c8.3-4.3,17.9-8.3,24-16.5C289.8,977,289.2,964.9,289.7,953.8z"/>
	</g>
	<g transform="translate(651 1856)">
		<path class="st3" d="M1002.8-310.6c217.5-30.3,224.4,59.9,115.9,118.4c-38.9,21-92.2,37.3-109.8,55c-25.9,26,72.1,8,80.9,31.4
			C1100.5-76.9,969-1.7,833.5,48.6C753,78.5,726.8,79,670.6,104.1c-86.7,39-122.4,81.9-97.7,100.5c24.3,18.2,88.6-1.7,131.4,10.4
			c63,17.8,15.5,86.6-114.4,149.3c-106.3,51.4-205.4,68.4-290.2,118.4c-36.5,21.4-36.5,29.1-70,64c-66.4,69.1-140.6,95.1-133,114.4
			c8.7,22,89.9-0.4,105.9,18.4c25,29.2-134.8,125.9-260.9,160.8c-142.6,39.4-221.1-5.8-275.2-36.9c-32-18.3-82.4-49.1-63.4-117.5
			c9.6-34.4,34.5-69.9,276.6-280c273.2-237.2,341-278.3,338.5-334.1c-1.7-38.3-34.9-44.3,15.4-85.2
			C339.1-99.1,749.7-275.4,1002.8-310.6L1002.8-310.6z"/>
		<path class="st3" d="M1182.6-40.1c-2.9-2.3-8.3-3.9-10.7-6.2c-1.6-1.6,0.3-3.9,0.8-5.6c1.1-3.2,1.4-6.6-0.3-9.7
			c-3.7-6.2-14.4-9.9-25.9-11.3c-24.8-3-48.8,5.5-47.2,19.3c1.3,11.9,18.2,18.3,36.9,22.5c4.6,5.2,12.3,9.7,23.8,10.6
			c12.3,0.9,24.5-2.9,27-9.5C1188.5-33.5,1186.1-37.2,1182.6-40.1L1182.6-40.1z"/>
		<path class="st3" d="M985.2,154.5c-12.8-3.5-27.3-5.4-41.1-7.7c-14.9-2.5-29.6-5-44.5-7.4c-28.8-4.8-57.9-9-88-11.1
			c-30.4-2-64.1-1.8-89.4,8.3c-21.3,8.5-31.3,25.4-17.3,38c2.2,2,6.4,3.9,11,4.1c1.1,0.2,2.4,0.3,3.7,0.3c16.5-0.2,32.5,0.8,48,2.8
			c2.2,0.4,4.3,0.7,6.6,0.9c8.5,1.3,17,2.9,25.3,4.9c1.3,0.6,2.6,1.2,3.7,1.9c17.1,9,26.9,19.7,38.1,30.8
			c11.5,11.6,27.8,21.7,54.1,23.7c28,2.2,54.7-6,72.8-16.6c17.8-10.5,36.8-23.7,42.9-37.6C1016.6,176.8,1009.4,161.4,985.2,154.5
			L985.2,154.5z M1039.4,95c-7.5-9.3-25.6-16.6-44.9-17.5c-14.9-0.8-28.8,1.1-42.1,4.1c-1.3-0.1-2.4-0.1-3.7-0.2
			c-24.6-1.2-56.3-4-72.3,8.8c-3,2.5-4.6,5.2-4.5,8c-0.3,0.4-0.3,0.9-0.5,1.3l0.3,2.6c0,0.1,0.2,0.2,0.2,0.3s0.3,0.4,0.5,1
			c0.5,1,1.3,1.9,2.1,2.7c2.2,2,3.7,3,7.2,4.4c1.6,0.7,3.5,1.2,5.6,1.6c2.9,1.2,6.1,1.9,9.9,2c13,0.4,25.9,0.6,38.9,1
			c6.9,1.6,13.8,3.3,20.6,4.8c20.8,4.6,44,7.4,64.8,1.3C1039.6,115.9,1047.4,104.9,1039.4,95L1039.4,95z"/>
	</g>
</g>
<g class="st4">
	<path class="st5" d="M2643.7,943.3c-104-109.4-888.9-4.7-970.1,27.4c-32.3,12.8-62.1,25.7-91.5,41
		c-86.2,44.8-117.4,83.6-139.4,116.3c-75.6,112.4-10.8,106.9-69.1,154c-107.3,86.7-334.6,111.9-357,170.9
		c-14.7,38.6,67.1,69,155.4,78.2c91.1,9.5,552.7-459.8,616.5-234.2c47,165.9,211.8,100.6,314,175.4c143,104.7,579.2-61.7,549-155.6
		C2617.7,1211,2808,1116,2643.7,943.3L2643.7,943.3z"/>
	<path class="st5" d="M1622.9,910.5c-6.8-20.9-30.3-35.7-55.9-40.3c-30.4-5.4-62.4,0.8-91.8,7.2c-32,7-63.1,16.4-93,27.9
		c-57.8,22.3-109.7,53-159.1,85.5c-12.7,8.3-25.2,16.8-37.6,25.2c-11,7.5-22.5,14.8-32.5,23.1c-9.3,7.7-17.4,16.6-21.6,26.8
		c-4.3,10.4-2.5,21.2,3.8,30.8c6.4,9.8,16.9,17.3,23.7,26.8c5.9,8.2,7.8,18.2,5.9,27.5c-4.2,20.1-25.6,34.5-50.9,35
		c-2.6,0.1-5.2,0-7.9-0.3c-4.7-0.6-8.9-1.7-12.8,1.3c-4.2,3.2-7.7,7.6-10.3,11.8c-5.3,8.6-7.5,18.3-6.9,27.8
		c1.2,19.7,13.6,38.3,33.7,49.6c5.6,3.1,11.6,5.7,17.8,7.8c5.6,4,13,6.4,21.1,6.7c4.2,0.2,8.6-0.1,13-0.5c8.3,0.4,16.7,0.1,24.9-0.9
		c29.2-3.5,55.6-14.9,78.4-29.6c23.4-15.1,43.9-33,62.7-51.6c18.7-18.6,35.7-38.3,51.3-58.6c30.3-39.6,55.3-81.7,78.8-124.1
		c13.6-15.8,28-31,47.4-42.7c8.6-5.2,18.2-9.2,28.4-11.8c6.4-0.4,12.9-0.8,19.3-1.4c13.6-1.4,26.6-4,38.8-9
		C1615.2,950.9,1629.8,931.6,1622.9,910.5L1622.9,910.5z"/>
	<path class="st5" d="M1134.2,1316.8c-2.7-4.3-7.8-7.1-13.5-7.8c-0.3-0.2-0.6-0.3-0.9-0.5c-12.8-6.7-28-8.1-42.8-9.5
		c-17-1.5-33.9-3.2-50.9-4.6c-15-1.3-30.2,0.2-42.5,7.7c-11.5,7.1-19.9,16.9-23.5,28.2c-7.2,22.8,3.6,50.9,25.9,66.4
		c10.4,7.2,23.9,12,37.8,10.6c15.3-1.5,28.3-8.8,37.6-18.5c10.4-10.8,16-23.7,25-35.2c3.3-4.2,8.1-8.7,12.9-11.3
		c3.6-2,4.6-2.5,8.3-3.4c0.8-0.2,1.7-0.4,2.5-0.5c0.2,0,0.5-0.1,0.8-0.1c2.2-0.1,4.3-0.1,6.4,0.1c2.1,0.2,4.2-0.3,5.9-1.2
		c1.5-0.1,3-0.5,4.3-1.3C1135.2,1331.7,1138.4,1323.7,1134.2,1316.8L1134.2,1316.8z"/>
	<path class="st5" d="M964.4,1254.2c-0.4-2.2-1.7-4.2-4.2-5.2c-12.3-4.8-25.6-9.4-39.3-5.2c-11.1,3.4-19.7,12.6-16.7,22.3
		c2.9,9.5,15.1,15.5,26.9,15.5c14.2,0,25.5-7.8,35-15.3C971.2,1262.3,968.9,1256.7,964.4,1254.2L964.4,1254.2z"/>
	<path class="st5" d="M927.7,1321.1c-2.1-0.7-4.2-0.7-6.1-0.2c-1.1-0.1-2.3-0.1-3.4,0.1c-22.6,3.8-41.5,16.7-50.3,33.4
		c-3.7,4.4-6.5,9.2-7.7,14.2c-2.5,10.5,6.4,20.9,20.7,19.4c14.5-1.6,20.7-13.2,26.9-22.3c7-10.1,14-20.2,20.9-30.4
		c0.8-0.8,1.4-1.7,1.8-2.7c0.5-0.8,1.1-1.6,1.6-2.4C934.5,1326.9,931.7,1322.4,927.7,1321.1z"/>
</g>
</svg>
